<?xml version="1.0" encoding="utf-8"?>
<!-- Generator: Adobe Illustrator 19.0.0, SVG Export Plug-In . SVG Version: 6.00 Build 0)  -->
<svg version="1.1" id="Capa_1" xmlns="http://www.w3.org/2000/svg" xmlns:xlink="http://www.w3.org/1999/xlink" x="0px" y="0px"
	 viewBox="0 0 101.8 105.4" style="enable-background:new 0 0 101.8 105.4;" xml:space="preserve">
<style type="text/css">
	.st0{fill:#5FAD47;}
</style>
<path class="st0" d="M74.5,46.1C72,33.3,60.2,25.2,47.2,27C35.3,28.8,25.9,39.8,27,52.7c0.5,5.7,2.7,10.6,6.6,14.8
	c3,3.2,5,7,5.7,11.4c0.4,2.2,1.5,3.5,3.8,3.7c2.6,0.2,5.2,0,7.8,0c0,0,0,0.1,0,0.1c2.2,0,4.5,0,6.7,0c2.8,0,4.4-1.2,4.8-3.8
	c0.8-4.7,3.1-8.6,6.3-12C74.1,60.9,75.9,53.9,74.5,46.1z M50.8,38.8c-2.4,0-4.6,0.7-6.5,2c-3.5,2.4-5.2,5.8-5.4,9.9
	c-0.1,1.3-0.9,2.3-2.1,2.4c-1.1,0.2-2.3-0.5-2.6-1.6c-0.2-0.5-0.1-1-0.2-1.5c0.1-7.3,6-14.2,13.5-15.8c1-0.2,2.1-0.3,3.2-0.3
	c1.5,0,2.7,0.9,2.7,2.3C53.5,37.6,52.3,38.8,50.8,38.8z M59.2,85.9c-2.8,0-5.5,0-8.3,0c-2.8,0-5.5,0-8.3,0c-1.7,0-2.6,0.7-2.9,2.4
	c-0.2,1.3-0.1,2.7,0,4c0.1,1.5,0.9,2.7,2.2,3.2c1.5,0.6,1.9,1.6,2.2,2.9c0.3,1.4,1.2,2.4,2.6,2.5c2.8,0.1,5.6,0.2,8.4,0
	c1.4-0.1,2.3-1.2,2.6-2.6c0.3-1.3,0.7-2.3,2.1-2.9c1.5-0.6,2.3-2.1,2.3-3.8c0-1,0-2,0-3C62.1,87,61,85.9,59.2,85.9z M19.6,50.8
	c0-1.6-1.2-3-3.1-3c-3-0.1-6.1-0.1-9.1,0c-1.9,0-3.1,1.3-3.1,3c0,1.7,1.3,2.8,3.2,2.9c1.5,0,3,0,4.4,0c1.5,0,3,0,4.4,0
	C18.3,53.6,19.6,52.5,19.6,50.8z M77.5,73.2c-1.4-1.4-3.2-1.5-4.4-0.3c-1.2,1.2-1.1,2.9,0.2,4.4c2.1,2.1,4.1,4.2,6.3,6.2
	c0.6,0.5,1.4,0.8,2.1,1.2c1.4-0.2,2.3-0.8,2.8-1.9c0.5-1.2,0.2-2.4-0.7-3.3C81.7,77.3,79.6,75.2,77.5,73.2z M49.4,18.9
	c2.1,1.3,4.4,0,4.5-2.6c0.1-1.5,0-3,0-4.4c0,0-0.1,0-0.1,0c0-1.7,0.1-3.4,0-5c-0.2-1.9-1.4-2.7-3.3-2.5c-1.4,0.1-2.5,1.3-2.5,3
	c0,3,0,6,0,9C48,17.4,48.4,18.3,49.4,18.9z M94.6,47.8c-3.2-0.1-6.3-0.1-9.5,0c-1.8,0.1-2.9,1.4-2.9,3c0.1,1.7,1.2,2.8,3.1,2.8
	c1.5,0,3,0,4.4,0c1.4,0,2.9,0,4.3,0c0.1,0,0.2,0,0.2,0c1.8-0.1,3-1.1,3-2.8C97.4,49.1,96.5,47.9,94.6,47.8z M74,29.2
	c1.3,0.5,2.4,0.2,3.3-0.7c2.2-2.1,4.3-4.3,6.4-6.4c1.3-1.3,1.3-3.1,0.1-4.3c-1.1-1.1-2.9-1.1-4.2,0.1c-2.2,2.1-4.3,4.3-6.4,6.5
	c-0.5,0.6-0.8,1.4-1,1.8C72.3,27.8,72.9,28.7,74,29.2z M24.8,72.8c-2.3,2.3-4.6,4.6-6.9,6.9c-0.9,0.9-0.9,2-0.5,3.1
	c0.5,1.2,1.4,1.7,2.7,1.8c0.5-0.2,1.2-0.3,1.6-0.7c2.4-2.4,4.9-4.7,7.2-7.2c1.1-1.1,0.8-2.9-0.3-3.9C27.6,71.8,25.9,71.7,24.8,72.8z
	 M24.5,28.4c1.4,1.4,3,1.4,4.3,0.2c1.3-1.2,1.3-2.9-0.1-4.3c-2.1-2.1-4.2-4.3-6.4-6.3c-0.5-0.5-1.3-0.8-2-1.2
	c-1.4,0.2-2.3,0.8-2.8,1.8C17,19.7,17.2,21,18,21.9C20.2,24.1,22.3,26.2,24.5,28.4z"/>
</svg>
