<?xml version="1.0" encoding="utf-8"?>
<!-- Generator: Adobe Illustrator 19.0.0, SVG Export Plug-In . SVG Version: 6.00 Build 0)  -->
<svg version="1.1" id="Capa_1" xmlns="http://www.w3.org/2000/svg" xmlns:xlink="http://www.w3.org/1999/xlink" x="0px" y="0px"
	 viewBox="0 0 101.8 105.4" style="enable-background:new 0 0 101.8 105.4;" xml:space="preserve">
<style type="text/css">
	.st0{fill:#5FAD47;}
</style>
<path class="st0" d="M84.2,47.8c-1.2-1.7-2.5-3.5-3.8-5.1c-0.6-0.8-0.7-1.5,0-2.3c1.3-1.7,2.5-3.5,3.7-5.3c0.8-1.1,0.6-1.6-0.6-2.3
	c-1.9-1-3.9-2.1-5.8-3.1c-0.9-0.4-1.1-1.1-0.9-2c0.4-2.1,0.7-4.1,1.1-6.2c0.2-1.5-0.2-2-1.7-2c-2.1-0.1-4.2,0-6.3-0.2
	c-1-0.1-1.5-0.4-1.7-1.3c-0.6-2.1-1.2-4.2-1.8-6.3c-0.4-1.3-0.9-1.5-2.1-1c-2.1,0.9-4.1,1.7-6.2,2.6c-0.8,0.4-1.4,0.2-1.9-0.4
	c-1.5-1.6-2.9-3.3-4.4-4.9c-0.9-1-1.6-1-2.5,0c-1.4,1.5-2.7,3-4,4.6c-0.8,1-1.6,1.1-2.7,0.7c-1.9-0.8-3.8-1.6-5.6-2.3
	c-1.3-0.5-1.8-0.3-2.2,1c-0.5,1.8-1,3.5-1.5,5.3c-0.6,2.3-0.9,2.6-3.3,2.5c-0.3,0-0.6,0-0.9,0c-1.5-0.2-3,0.3-4.6,0.3
	c-1,0-1.5,0.7-1.3,1.6c0.5,2.3,0.9,4.6,1.3,6.9c0.2,0.9-0.1,1.2-0.8,1.6c-1.9,1-3.8,2.1-5.7,3.1c-1.4,0.8-1.5,1.3-0.6,2.6
	c1.2,1.7,2.5,3.5,3.8,5.1c0.6,0.8,0.6,1.4,0,2.2c-1.3,1.7-2.5,3.4-3.7,5.2c-0.9,1.2-0.7,1.7,0.6,2.5c1.9,1,3.8,2.1,5.7,3.1
	c0.8,0.4,1.1,0.9,0.9,1.9c-0.5,2.2-0.8,4.5-1.1,6.7c-0.2,1,0.3,1.7,1.4,1.6c2.2-0.2,4.4,0.4,6.7,0.2c1-0.1,1.4,0.3,1.7,1.3
	c0.5,2,1.1,4,1.7,6c0.5,1.7,0.8,1.9,2.5,1.2c2-0.8,3.9-1.6,5.8-2.5c0.8-0.4,1.4-0.3,2,0.4c1.4,1.6,2.9,3.2,4.3,4.8
	c1,1.1,1.6,1.1,2.6-0.1c1.4-1.6,2.8-3.2,4.2-4.8c0.7-0.8,1.3-0.9,2.2-0.5c1.9,0.8,3.8,1.6,5.6,2.3c1.6,0.6,2.1,0.3,2.5-1.2
	c0.6-2,1.1-4.1,1.7-6.1c0.2-0.6,0.4-1.1,1.2-1.1c2.4-0.1,4.8-0.3,7.1-0.5c1.1-0.1,1.5-0.6,1.3-1.6c-0.4-2-0.7-4.1-1.2-6.1
	c-0.3-1.5-0.2-1.9,1.1-2.6c1.8-1,3.6-2,5.4-3C85,49.5,85.1,49,84.2,47.8z M49.5,62.1c-10.2-0.7-19.1-9.4-19-20.4
	C30.4,30.9,39.3,21.3,51,21.3c11.3,0,19,9,20.2,18C72.8,51.2,62.7,63,49.5,62.1z M44,76.1c-0.5-0.5-1-0.6-1.7-0.4
	c-1.2,0.4-2.5,0.7-3.8,1.2c-1.9,0.7-3.5,0.3-5-0.8c-0.8-0.6-1-0.4-1.3,0.5c-1.7,5.3-3.4,10.6-5.1,15.9c-0.1,0.4-0.4,0.9,0,1.3
	c0.4,0.5,0.9,0.3,1.5,0.1c1.9-0.6,3.8-1.1,5.6-1.7c0.8-0.3,1.3,0,1.8,0.6c1.1,1.5,2.3,3,3.5,4.5c0.3,0.3,0.5,0.8,1.1,0.7
	c0.8,0.2,0.9-0.5,1.1-1.1c1.5-4.5,2.9-9,4.4-13.5c0.5-1.4,1.5-3,1.2-4.3C46.8,78,45,77.1,44,76.1z M74.7,92
	c-1.7-5.2-3.3-10.3-5-15.5c-0.3-0.9-0.5-1-1.3-0.4c-1.3,0.9-2.7,1.4-4.3,1.1c-1.6-0.3-3.1-0.9-4.7-1.5c-0.6-0.2-1.1-0.1-1.5,0.3
	c-0.8,0.8-1.6,1.6-2.6,2.3c-0.8,0.6-0.9,1.1-0.6,2c1.9,5.6,3.6,11.2,5.5,16.8c0.2,0.5,0.3,0.9,0.8,1.1c0.5,0.1,0.8-0.3,1.2-0.7
	c1.2-1.6,2.5-3.1,3.7-4.7c0.5-0.7,1-0.9,1.9-0.6c1.9,0.6,3.8,1.1,5.7,1.7c0.8,0.2,1.5,0.2,1.4-1.3C74.9,92.7,74.8,92.3,74.7,92z
	 M63.3,36.7c-2.3-0.2-4.5-0.4-6.8-0.4c-0.8,0-1.3-0.2-1.6-1.1c-0.7-2-1.6-3.9-2.4-5.9c-0.3-0.8-0.8-1.4-1.7-1.4s-1.4,0.6-1.7,1.4
	c-0.7,1.7-1.5,3.5-2.1,5.2c-0.4,1.3-1.1,2-2.5,1.6c-1.8,0.2-3.5,0.4-5.3,0.5c-0.9,0-1.6,0.1-1.9,1.1c-0.3,0.9,0.1,1.5,0.8,2.1
	c1.7,1.4,3.3,2.8,5,4.1c0.5,0.4,0.6,0.7,0.4,1.3c-0.5,2-1,4-1.5,6c-0.2,0.9-0.4,1.8,0.5,2.4c0.9,0.6,1.7,0.2,2.5-0.3
	c1.6-1,3.3-2,4.9-3.1c0.7-0.5,1.2-0.5,1.9,0c1.7,1.2,3.5,2.2,5.3,3.3c0.7,0.4,1.4,0.6,2.1,0.1c0.7-0.5,0.8-1.2,0.6-2
	c-0.5-2-1-4.1-1.5-6.1c-0.2-0.8,0-1.3,0.6-1.8c1.7-1.4,3.3-2.8,5-4.2c0.6-0.5,0.8-1.1,0.6-1.8C64.3,37.2,64,36.7,63.3,36.7z"/>
</svg>
