<?xml version="1.0" encoding="utf-8"?>
<!-- Generator: Adobe Illustrator 19.0.0, SVG Export Plug-In . SVG Version: 6.00 Build 0)  -->
<svg version="1.1" id="Capa_1" xmlns="http://www.w3.org/2000/svg" xmlns:xlink="http://www.w3.org/1999/xlink" x="0px" y="0px"
	 viewBox="0 0 101.8 105.4" style="enable-background:new 0 0 101.8 105.4;" xml:space="preserve">
<style type="text/css">
	.st0{fill:#5FAD47;}
</style>
<path class="st0" d="M34.3,30.4c0.8-0.3,1.5-0.8,2.1-1.3c0.9-0.7,1.7-1.5,2.7-2.2c2.5-1.9,4.5-1.3,5.5,1.7c0.1,0.3,0.2,0.7,0.3,1
	c0.2,2.3,0.4,4.6,0.5,6.9c0.1,2.1,0.5,4.1,1.8,5.8c1.7,2.2,4.7,2,6.1-0.4c0.3-0.5,0.6-1.1,0.7-1.6c0.4-2.4,0.6-4.7,0.9-7.1
	c-0.1,0-0.2,0-0.3,0c0-0.8,0-1.6,0-2.4c0-0.8,0.1-1.6,0.3-2.4c0.6-2.2,2.1-3,4.2-2.1c1.1,0.5,2.1,1.2,3.1,1.7
	c1.2,0.6,2.3,1.3,3.5,1.7c0.6,0.2,1.6,0,2-0.4c0.4-0.4,0.6-1.4,0.4-2c-0.4-1.1-1-2.1-1.7-3c-2.8-3.4-6.2-6.1-9.9-8.4
	c-0.4-0.2-1.1-0.2-1.5,0c-3.7,1.8-7.4,2.1-11.2,0.6c-0.5-0.2-1.2-0.1-1.6,0.1c-3.9,2.2-7.1,5.3-9.6,9.1c-0.5,0.7-0.9,1.6-1.1,2.4
	C31.3,29.9,32.7,31,34.3,30.4z M68.1,78.2c0.4-1,0.7-2-0.2-2.9c-1-0.9-2-0.6-3,0.1c-1.2,0.8-2.3,1.8-3.4,2.7
	c-3.1,2.6-5.5,1.9-6.3-2.2c-0.4-2.3-0.3-4.7-0.6-7c-0.3-1.7-0.7-3.5-1.4-5.1c-0.4-0.8-1.4-1.6-2.2-2c-2-0.8-4.1,0.2-4.7,2.6
	c-0.7,2.6-0.9,5.2-1.3,7.9c0.1,0,0.2,0,0.3,0.1c0,1.2,0,2.5,0,3.7c0,0.4-0.1,0.8-0.3,1.2c-0.6,1.9-1.9,2.6-3.8,1.9
	c-1.1-0.4-2.1-1-3.1-1.6c-1.2-0.6-2.4-1.3-3.6-1.9c-0.8-0.4-1.7-0.4-2.4,0.3c-0.7,0.7-0.7,1.6-0.2,2.4c0.5,1,1.1,2,1.8,2.8
	c2.8,3.3,6.1,5.9,9.8,8.2c0.3,0.2,1,0.2,1.4,0c3.7-2,7.5-2.1,11.4-0.6c0.4,0.1,1,0.1,1.3-0.1c4.1-2.4,7.5-5.6,10-9.6
	C67.8,78.8,68,78.5,68.1,78.2z M89.8,71c-0.3-4.7-1.2-8.8-3.2-12.7c-0.3-0.7-0.8-1.4-1.4-1.9c-0.5-0.4-1.4-0.7-1.9-0.5
	c-0.6,0.2-1.2,1-1.4,1.7c-0.2,0.7-0.1,1.5,0,2.2c0.2,1.3,0.5,2.5,0.7,3.8c0.4,3-1.2,4.6-4.1,3.7c-2.6-0.8-5-2.1-7.4-3.2
	c-1.9-0.9-3.8-1.6-5.9-1.3c-2,0.2-3.4,1.9-3.3,3.9c0.1,1.5,0.9,2.6,2,3.4c2.1,1.5,4.3,2.9,6.4,4.3c1,0.6,2,1.2,2.9,2
	c1.8,1.6,1.7,3.4-0.2,4.8c-1.1,0.8-2.3,1.3-3.4,2c-1,0.6-2,1.2-2.9,1.9c-0.5,0.4-0.9,1.4-0.7,1.9c0.2,0.6,1,1.2,1.6,1.4
	c0.9,0.3,1.9,0.2,2.8,0.1c4.5-0.6,8.7-2.4,12.7-4.4c0.7-0.4,0.9-0.9,0.9-1.6c0.1-3.9,1.7-7,4.7-9.4C89.6,72.4,90,71.7,89.8,71z
	 M58.7,31.7c-1,0-2,0.5-2.2,1.7c-0.2,1.2,0.5,1.9,1.4,2.4c0.6,0.3,1.3,0.6,2,0.9c0.9,0.3,1.8,0.6,2.7,1c3.1,1.2,3.6,3.3,1.4,5.7
	c-0.5,0.5-1,1-1.6,1.5c-1.6,1.1-3.4,2-4.9,3.2c-1.4,1.1-2.7,2.4-3.7,3.8c-0.5,0.7-0.7,1.9-0.5,2.8c0.5,2.4,2.6,3.7,5.3,2.7
	c2.7-1,5.2-2.5,7.9-3.7c1.1-0.5,2.1-1.1,3.3-1.4c2-0.5,3.3,0.5,3.5,2.5c0.1,1.5,0,3,0,4.5c0,0-0.1,0-0.1,0c0.2,1.2,0.2,2.4,0.6,3.5
	c0.4,1.4,2,1.8,3,0.7c0.8-0.9,1.5-1.9,1.9-3c1.7-4.2,2.3-8.5,2.4-13c0-0.4-0.3-1-0.7-1.2c-3.4-2.2-5.5-5.2-6.1-9.3
	c-0.1-0.9-0.6-1.4-1.3-1.8c-2.9-1.6-6.1-2.7-9.4-3.2C61.9,31.7,60.3,31.7,58.7,31.7z M33.8,84.6c-1.3-0.6-2.6-1.1-3.9-1.5
	c-4-1.4-4.6-3.9-1.3-6.7c1.8-1.5,3.8-2.7,5.8-4c1.7-1.1,3.2-2.4,4-4.3c1.1-2.6-0.7-5.2-3.4-5.1c-1,0-2,0.2-2.9,0.6
	c-2.2,1-4.3,2.2-6.4,3.3c-1.2,0.6-2.4,1.2-3.6,1.5c-1.7,0.5-3-0.3-3.3-2.1c-0.3-1.3-0.2-2.7-0.3-4c0.1,0,0.1,0,0.2,0
	c-0.1-1.3-0.1-2.7-0.3-4c-0.1-0.6-0.8-1.5-1.3-1.6c-0.6-0.1-1.7,0.2-2.1,0.8c-0.8,1.1-1.5,2.3-1.9,3.5c-1.4,3.8-1.9,7.8-2.1,11.9
	c0,0.8,0.2,1.2,0.8,1.6c3.5,2.2,5.5,5.3,6,9.5c0.1,0.5,0.5,1.1,0.9,1.2c2.3,1,4.6,2.2,7.1,2.8c2.4,0.6,4.9,0.7,7.3,0.9
	c1,0.1,2-0.4,2.2-1.6C35.6,85.8,34.8,85.1,33.8,84.6z M19.6,49.5c0.2,4.2,1.1,7.9,2.7,11.4c0.4,1,1,2,1.7,2.7
	c0.5,0.5,1.4,0.8,2.1,0.7c0.9-0.1,1.4-0.9,1.5-1.8c0-0.6,0.1-1.1,0-1.7c-0.2-1.5-0.5-2.9-0.8-4.4c-0.4-2.6,1.2-4.1,3.7-3.7
	c2.8,0.5,5.1,2,7.6,3.2c1.5,0.8,3.3,1.3,5,1.6c1.7,0.3,3.2-0.3,4-1.9c0.9-1.6,0.5-3-0.6-4.3c-0.5-0.6-1-1.2-1.7-1.7
	c-1.7-1.2-3.4-2.2-5.1-3.3c-1.1-0.7-2.4-1.4-3.4-2.2c-1.9-1.6-1.8-3.5,0.3-5c1.1-0.8,2.4-1.3,3.5-2.1c1-0.6,2.1-1.3,2.9-2.1
	c1.1-1.1,0.6-2.7-0.9-3.1c-0.8-0.2-1.7-0.3-2.5-0.2c-4.8,0.5-9.2,2.3-13.4,4.5c-0.6,0.3-0.8,0.7-0.8,1.4c-0.1,3.8-1.5,6.9-4.4,9.3
	C20,47.7,19.4,48.5,19.6,49.5z M6.6,78.2C3,78.1,0.1,80.8,0,84.4c-0.1,3.3,2.8,6.4,6.1,6.4c3.5,0.1,6.4-2.6,6.5-6.1
	C12.7,81.3,10,78.3,6.6,78.2z M51.1,92.7c-3.4,0-6.3,2.9-6.3,6.3c0,3.5,2.9,6.4,6.3,6.4c3.4,0,6.2-2.9,6.3-6.3
	C57.4,95.6,54.5,92.7,51.1,92.7z M13.9,44.2c3.5,0,6.3-2.9,6.3-6.4c0-3.5-2.8-6.2-6.3-6.2c-3.5,0-6.3,2.8-6.3,6.3
	C7.7,41.4,10.5,44.2,13.9,44.2z M95.5,75.9c-3.5,0-6.3,2.8-6.3,6.3c0,3.5,2.7,6.2,6.2,6.2c3.5,0,6.4-2.8,6.4-6.3
	C101.8,78.8,98.9,75.9,95.5,75.9z M85.6,42.2c3.4,0,6.2-2.8,6.3-6.3c0-3.5-2.9-6.4-6.3-6.3c-3.4,0-6.3,2.9-6.3,6.3
	C79.2,39.3,82.1,42.2,85.6,42.2z M49.1,12.6c3.4,0,6.2-2.8,6.2-6.3c0-3.5-2.8-6.3-6.3-6.3c-3.4,0-6.2,2.8-6.2,6.3
	C42.7,9.8,45.5,12.6,49.1,12.6z"/>
</svg>
