<?xml version="1.0" encoding="utf-8"?>
<!-- Generator: Adobe Illustrator 19.0.0, SVG Export Plug-In . SVG Version: 6.00 Build 0)  -->
<svg version="1.1" id="Capa_1" xmlns="http://www.w3.org/2000/svg" xmlns:xlink="http://www.w3.org/1999/xlink" x="0px" y="0px"
	 viewBox="0 0 101.8 105.4" style="enable-background:new 0 0 101.8 105.4;" xml:space="preserve">
<style type="text/css">
	.st0{fill:#5FAD47;}
</style>
<path class="st0" d="M65.1,80.7c-0.7-0.8-1.5-1.1-2.5-1c-2.4,0.2-4.7-0.3-6.9-1.5c0.8-1,0.8-1,2-1.2c5.9-0.7,11.2-2.9,15.4-7
	c5.8-5.6,11.5-11.4,17.2-17.1c0.2-0.2,0.4-0.4,0.6-0.6c2.9-3.5,1.7-8.5-2.5-10.3c-0.6-0.3-0.8-0.5-0.6-1.2c1-3.6-0.7-6.8-4.2-8
	c-0.6-0.2-0.7-0.4-0.6-1.1c0.5-3.3-1.2-6.2-4.3-7.3c-0.7-0.2-0.8-0.5-0.7-1.3c0.7-4.9-3.9-8.7-8.6-7.1c-0.8,0.3-1.2,0.1-1.7-0.4
	c-2-1.9-4.4-2.9-7.1-3c-4.6-0.1-9.2,0-13.8,0c-1.3,0-2,0.6-2,2c0,1.2-0.1,2.3,0.2,3.5c0.2,0.7-0.1,0.9-0.8,0.8
	c-4.8-0.8-8.4,2.7-7.7,7.6c0.1,0.6,0,0.8-0.6,1c-3.3,1.1-5,3.9-4.5,7.4c0.1,0.6,0.1,0.8-0.6,1c-3.6,1.2-5.3,4.5-4.3,8.1
	c0.2,0.6,0.1,0.8-0.5,1.1c-4.4,1.8-5.6,7.2-2.3,10.7c0.8,0.8,1.6,1.7,2.5,2.4c0.8,0.7,0.8,1.1,0,1.8c-5.1,5-10.2,10.2-15.3,15.3
	c-0.3,0.3-0.6,0.6-0.8,0.9c-0.5,0.7-0.5,1.5,0.1,2.2c0.7,0.7,1.5,0.8,2.3,0.3c0.3-0.2,0.6-0.5,0.9-0.8c5.2-5.2,10.4-10.4,15.6-15.6
	c0.4-0.4,0.8-0.7,1.5-0.4c4.2,1.6,8.3-0.9,8.9-5.4c0.1-0.6,0.2-0.8,0.8-0.9c3.4-0.4,5.5-2.5,5.9-5.9c0.1-0.5,0.2-0.7,0.7-0.8
	c3.5-0.5,5.5-2.4,6-6c0.1-0.6,0.3-0.7,0.8-0.8c5-0.6,7.4-5.5,5-9.8c-0.3-0.6-0.4-0.9,0.1-1.4c3.5-3.5,7-7,10.5-10.5
	c1.4-1.4,3.2-1.4,4.5-0.1c1.2,1.2,1.1,3-0.3,4.4c-2.4,2.4-4.8,4.8-7.2,7.2c-1,1-1.1,2-0.2,2.8c0.8,0.7,1.8,0.6,2.7-0.3
	c1.8-1.8,3.6-3.6,5.4-5.4c1.5-1.5,3.2-1.7,4.5-0.4c1.3,1.3,1.2,3-0.3,4.5c-1.8,1.8-3.7,3.7-5.5,5.5c-1,1-1,2-0.2,2.7
	c0.7,0.7,1.8,0.7,2.8-0.3c1.3-1.3,2.6-2.7,4-4c1.4-1.4,3.1-1.4,4.4-0.1c1.2,1.2,1.2,3-0.2,4.4c-1.3,1.4-2.7,2.7-4.1,4.1
	c-0.9,0.9-0.9,1.9-0.1,2.6c0.7,0.7,1.8,0.7,2.7-0.2c0.7-0.7,1.3-1.4,2.1-2c1.7-1.5,4.1-0.7,4.8,1.4c0.4,1.4-0.2,2.4-1.1,3.3
	C82.2,56,76.8,61.4,71.3,66.8c-4.1,4.1-9.1,6.4-14.9,6.8c-1,0.1-1.8,0.4-2.5,1.2c-4.7,4.8-9.5,9.6-14.3,14.4
	c-0.1,0.1-0.3,0.3-0.4,0.4c-0.7,0.8-0.7,1.8-0.1,2.5c0.7,0.7,1.7,0.7,2.6,0c0.2-0.2,0.5-0.4,0.7-0.7c3.2-3.3,6.5-6.5,9.7-9.8
	c0.6-0.6,0.9-0.7,1.7-0.3c2.4,1.4,5,2,7.8,2c0.7,0,1.2,0.2,1.7,0.7c2.6,2.6,5.1,5.2,7.7,7.7c1.1,1.1,2.1,1.2,2.9,0.3
	c0.8-0.8,0.7-1.7-0.4-2.8C70.7,86.4,67.8,83.6,65.1,80.7z M34,58.5c-1.1,0.6-2.3,0.5-3.2-0.4c-1.7-1.6-3.4-3.3-5-5
	c-1-1.1-1-2.7,0-3.8c1-1.1,2.7-1.5,3.9-0.5c2,1.6,3.8,3.5,5.5,5.5c0.4,0.4,0.5,1,0.5,1.5C35.6,57,35.1,57.9,34,58.5z M41.5,51.2
	c-1.2,1.2-3,1.1-4.4-0.2c-2.3-2.3-4.5-4.5-6.8-6.8c-0.9-0.9-1-2.1-0.6-3.2c0.4-1.1,1.5-1.8,2.7-1.8c0.9,0,1.6,0.4,2.2,1
	c2.2,2.2,4.5,4.4,6.7,6.7C42.7,48.2,42.7,50,41.5,51.2z M48.3,44.4c-1.1,1.2-2.9,1.4-4.1,0.3c-3.1-2.9-6-5.9-9-9
	c-0.9-0.9-1-2.1-0.4-3.2c0.5-1.1,1.5-1.6,2.7-1.7c0.8,0,1.5,0.3,2.1,0.9c2.9,2.9,5.8,5.7,8.6,8.6C49.4,41.5,49.4,43.2,48.3,44.4z
	 M54.9,37.7c-1.2,1.2-3,1.3-4.3,0c-3.4-3.4-6.9-6.8-10.2-10.2c-0.9-0.9-1.2-2.1-0.6-3.3c0.5-1.2,1.5-1.7,2.6-1.8
	c1,0,1.7,0.3,2.3,0.9c3.4,3.4,6.8,6.8,10.2,10.2C56.1,34.7,56.1,36.6,54.9,37.7z M65.1,19.4c-3.1,3-6.1,6.1-9.2,9.1
	c-0.3,0.3-0.5,0.5-0.9,0.1c-1.3-1.3-2.7-2.6-4.2-4.1c2.2,0,4.1,0,5.9,0c1.3,0,2-0.6,2.1-1.7c0-1-0.7-1.8-1.9-1.8
	c-1.6-0.1-3.2,0-4.8,0c-2.1-0.1-3.9-1.7-4-3.7c-0.1-0.7,0-1,0.9-1c3.8,0,7.5,0,11.3,0c1.9,0,3.5,0.8,4.9,2
	C65.5,18.7,65.5,19,65.1,19.4z M85.1,65.7c-0.5-0.5-1.2-0.8-2.1-0.8c-1,0-1.9,0.5-2.3,1.6c-0.5,1.1-0.3,2.1,0.5,3
	c2.1,2.1,4.2,4.2,6.3,6.3c1.3,1.2,2.8,1.3,3.9,0.2c1.2-1.1,1.1-2.8-0.1-4C89.3,69.8,87.2,67.8,85.1,65.7z"/>
</svg>
